<?xml version="1.0" encoding="utf-8"?>
<!-- Generator: Adobe Illustrator 25.4.1, SVG Export Plug-In . SVG Version: 6.00 Build 0)  -->
<svg version="1.1" id="Layer_1" xmlns="http://www.w3.org/2000/svg" xmlns:xlink="http://www.w3.org/1999/xlink" x="0px" y="0px"
	 viewBox="0 0 100 100" style="enable-background:new 0 0 100 100;" xml:space="preserve">
<polygon points="50,22.5 59,5 60.5,24.6 75.5,11.9 69.5,30.5 88.1,24.5 75.4,39.5 95,41 77.5,50 95,59 75.4,60.5 88.1,75.5 
	69.5,69.5 75.5,88.1 60.5,75.4 59,95 50,77.5 41,95 39.5,75.4 24.5,88.1 30.5,69.5 11.9,75.5 24.6,60.5 5,59 22.5,50 5,41 
	24.6,39.5 11.9,24.5 30.5,30.5 24.5,11.9 39.5,24.6 41,5 "/>
</svg>
